<svg xmlns="http://www.w3.org/2000/svg" id="a" data-name="Layer 2" width="488" height="240.12" viewBox="0 0 488 240.12"><path d="M95.13,135.96h-3.92V31.99h-35.76v-3.77h75.6v3.77h-35.91v103.96Z" fill="#fff"></path><path d="M150.35,61.11c0,2.21-.03,4.2-.08,5.96-.05,1.76-.13,3.75-.23,5.96h.3c1.11-3.22,2.87-6.21,5.28-8.98,2.41-2.77,5.58-5,9.51-6.71,3.92-1.71,8.7-2.57,14.33-2.57s10.64,1.03,14.71,3.09c4.07,2.06,7.17,5.23,9.28,9.51,2.11,4.28,3.17,9.73,3.17,16.37v52.21h-3.92v-52.06c0-8.85-2.04-15.29-6.11-19.31-4.07-4.02-9.78-6.04-17.13-6.04-5.73,0-10.79,1.13-15.16,3.39-4.38,2.26-7.8,5.76-10.26,10.49-2.47,4.73-3.7,10.71-3.7,17.96v45.57h-3.92V21.28h3.92v39.84Z" fill="#fff"></path><path d="M264.13,54.78c6.84,0,12.37,1.66,16.6,4.98s7.34,7.77,9.36,13.35c2.01,5.58,3.02,11.9,3.02,18.94v3.77h-59.3c-.1,12.17,2.57,21.53,8,28.07,5.43,6.54,13.33,9.81,23.69,9.81,4.83,0,8.98-.35,12.45-1.06,3.47-.7,7.52-2.11,12.15-4.23v4.07c-3.82,1.71-7.67,2.97-11.54,3.77-3.87.8-8.22,1.21-13.05,1.21-8.35,0-15.16-1.76-20.45-5.28-5.28-3.52-9.15-8.35-11.62-14.49-2.47-6.13-3.7-13.08-3.7-20.82s1.26-14.51,3.77-20.9c2.51-6.39,6.31-11.52,11.39-15.39,5.08-3.87,11.49-5.81,19.24-5.81ZM264.13,58.55c-8.45,0-15.37,2.84-20.75,8.53-5.38,5.68-8.52,14.01-9.43,24.97h55.08c.1-6.64-.75-12.47-2.57-17.5-1.81-5.03-4.58-8.95-8.3-11.77-3.72-2.81-8.4-4.22-14.03-4.22Z" fill="#fff"></path><path d="M429.2,135.96l-15.69-40.89h-46.78l-16.15,40.89h-4.22l42.55-108.04h3.77l40.74,108.04h-4.22ZM395.4,46.33c-.4-1.21-.86-2.46-1.36-3.77-.5-1.31-1.03-2.77-1.58-4.38-.55-1.61-1.18-3.32-1.89-5.13-.5,1.51-1.03,3.04-1.58,4.6-.55,1.56-1.13,3.07-1.73,4.53-.6,1.46-1.16,2.89-1.66,4.3l-17.5,44.81h43.91l-16.6-44.97Z" fill="#fff"></path><path d="M468.58,135.96h-24.44v-3.02l10.26-.45V31.84l-10.26-.6v-3.02h24.44v3.02l-10.26.6v100.64l10.26.45v3.02Z" fill="#fff"></path><path d="M109.85,178.84c0,1.8-.44,3.35-1.33,4.67-.89,1.31-2.16,2.33-3.81,3.06-1.66.73-3.65,1.09-5.99,1.09-1.2,0-2.32-.06-3.36-.17-1.04-.11-1.99-.29-2.85-.51s-1.64-.51-2.35-.86v-4.32c1.14.51,2.49.96,4.05,1.35,1.56.39,3.12.58,4.69.58,1.4,0,2.56-.19,3.49-.56.93-.37,1.63-.89,2.1-1.56.47-.67.71-1.45.71-2.33s-.21-1.68-.62-2.31c-.41-.63-1.12-1.22-2.12-1.78s-2.38-1.16-4.15-1.82c-1.71-.63-3.15-1.34-4.3-2.14-1.16-.8-2.03-1.76-2.61-2.89-.58-1.13-.88-2.49-.88-4.09,0-1.68.43-3.12,1.28-4.3.86-1.18,2.04-2.1,3.55-2.74,1.51-.64,3.25-.96,5.22-.96,1.74,0,3.33.17,4.77.51,1.44.34,2.75.77,3.92,1.28l-1.46,3.85c-1.11-.48-2.29-.89-3.53-1.22-1.24-.33-2.5-.49-3.79-.49-1.2,0-2.19.17-2.98.51-.79.34-1.37.81-1.76,1.41-.38.6-.58,1.3-.58,2.1,0,.94.21,1.73.62,2.35.41.63,1.1,1.2,2.05,1.71.96.51,2.25,1.1,3.88,1.76,1.74.66,3.22,1.36,4.43,2.12,1.21.76,2.13,1.66,2.76,2.72.63,1.06.94,2.38.94,3.98Z" fill="#00e7ff"></path><path d="M127.92,163.34c0,.77-.02,1.5-.06,2.18-.04.68-.09,1.27-.15,1.75h.26c.48-.8,1.09-1.46,1.82-1.97.73-.51,1.54-.9,2.44-1.16s1.82-.39,2.76-.39c1.83,0,3.36.29,4.6.88,1.24.58,2.18,1.49,2.83,2.72s.96,2.84.96,4.84v15.03h-4.5v-14.39c0-1.8-.38-3.14-1.16-4.02-.77-.88-1.97-1.33-3.6-1.33s-2.8.31-3.7.94c-.9.63-1.54,1.55-1.93,2.76-.39,1.21-.58,2.69-.58,4.43v11.6h-4.54v-32.54h4.54v8.65Z" fill="#00e7ff"></path><path d="M160.67,155.38c.69,0,1.29.2,1.8.6.51.4.77,1.07.77,2.01s-.26,1.58-.77,1.99c-.51.41-1.11.62-1.8.62-.74,0-1.36-.21-1.86-.62-.5-.41-.75-1.08-.75-1.99s.25-1.61.75-2.01c.5-.4,1.12-.6,1.86-.6ZM162.9,164.15v23.08h-4.54v-23.08h4.54Z" fill="#00e7ff"></path><path d="M189.31,167.62h-5.65v19.61h-4.58v-19.61h-3.85v-2.14l3.9-1.41v-1.16c0-3,.65-5.15,1.95-6.46,1.3-1.31,3.17-1.97,5.63-1.97.97,0,1.85.08,2.65.24.8.16,1.51.35,2.14.58l-1.11,3.38c-.46-.11-.97-.24-1.54-.38-.57-.14-1.17-.21-1.8-.21-1.14,0-1.99.38-2.55,1.13-.56.76-.83,1.96-.83,3.62v1.33h5.65v3.47Z" fill="#00e7ff"></path><path d="M209.78,183.98c.6,0,1.2-.06,1.8-.17s1.11-.24,1.54-.39v3.42c-.49.23-1.12.42-1.91.58s-1.61.24-2.46.24c-1.26,0-2.4-.21-3.43-.64-1.03-.43-1.86-1.17-2.5-2.23-.64-1.06-.96-2.54-.96-4.45v-12.72h-3.17v-2.06l3.34-1.71,1.63-4.88h2.78v5.18h6.46v3.47h-6.46v12.54c0,1.28.31,2.24.92,2.87.61.63,1.42.94,2.42.94Z" fill="#00e7ff"></path><path d="M253.96,156.66c3.97,0,6.87.79,8.71,2.38s2.76,3.83,2.76,6.74c0,1.28-.2,2.51-.6,3.68-.4,1.17-1.07,2.23-2.01,3.17-.94.94-2.19,1.68-3.75,2.21-1.56.53-3.46.79-5.72.79h-3.3v11.6h-4.67v-30.57h8.56ZM253.66,160.56h-3.6v11.17h2.83c1.71,0,3.15-.19,4.32-.58,1.17-.39,2.04-1,2.61-1.84s.86-1.96.86-3.36c0-1.77-.56-3.11-1.69-4.02-1.13-.91-2.91-1.37-5.33-1.37Z" fill="#00e7ff"></path><path d="M290.52,163.73c.43,0,.89.02,1.39.06s.92.11,1.26.19l-.51,4.24c-.37-.09-.77-.16-1.2-.21-.43-.06-.88-.08-1.37-.08-.8,0-1.58.16-2.35.49s-1.46.79-2.05,1.39c-.6.6-1.08,1.34-1.43,2.23-.36.89-.54,1.91-.54,3.08v12.12h-4.54v-23.08h3.6l.6,4.11h.21c.46-.83,1.03-1.59,1.71-2.29.69-.7,1.47-1.25,2.35-1.65.88-.4,1.84-.6,2.87-.6Z" fill="#00e7ff"></path><path d="M324.98,175.63c0,1.94-.26,3.65-.77,5.14-.51,1.48-1.24,2.74-2.18,3.77-.94,1.03-2.09,1.81-3.45,2.33-1.36.53-2.86.79-4.52.79-1.54,0-2.97-.26-4.28-.79-1.31-.53-2.46-1.31-3.42-2.33-.97-1.03-1.72-2.28-2.25-3.77-.53-1.48-.79-3.2-.79-5.14,0-2.54.43-4.69,1.31-6.46.87-1.77,2.12-3.12,3.75-4.05,1.63-.93,3.57-1.39,5.82-1.39,2.11,0,3.97.46,5.59,1.39,1.61.93,2.88,2.28,3.81,4.05.93,1.77,1.39,3.92,1.39,6.46ZM307.99,175.63c0,1.74.21,3.24.64,4.5.43,1.26,1.1,2.22,2.01,2.89s2.08,1.01,3.51,1.01,2.59-.33,3.49-1.01c.9-.67,1.56-1.63,1.99-2.89.43-1.25.64-2.75.64-4.5s-.22-3.22-.66-4.43c-.44-1.21-1.11-2.15-2.01-2.8-.9-.66-2.06-.98-3.49-.98-2.14,0-3.7.73-4.67,2.18-.97,1.46-1.46,3.47-1.46,6.04Z" fill="#00e7ff"></path><path d="M346.86,163.73c1.54,0,2.9.29,4.09.88,1.18.58,2.18,1.43,2.98,2.55h.21l.51-3h3.72v23.42c0,2.17-.38,3.99-1.16,5.46-.77,1.47-1.94,2.58-3.51,3.34-1.57.76-3.57,1.13-5.99,1.13-1.71,0-3.27-.11-4.67-.34s-2.67-.6-3.81-1.11v-4.07c1.17.6,2.46,1.05,3.88,1.35s2.98.45,4.69.45c1.91,0,3.4-.53,4.47-1.58,1.07-1.06,1.61-2.5,1.61-4.32v-.81c0-.34.01-.83.04-1.46.03-.63.06-1.1.08-1.41h-.17c-.74,1.14-1.69,2.01-2.85,2.59-1.16.58-2.52.88-4.09.88-2.91,0-5.19-1.04-6.83-3.12-1.64-2.08-2.46-5.02-2.46-8.82s.83-6.64,2.48-8.78,3.91-3.21,6.76-3.21ZM347.85,167.45c-1.2,0-2.21.32-3.04.96-.83.64-1.46,1.58-1.88,2.83-.43,1.24-.64,2.76-.64,4.56,0,2.68.48,4.72,1.43,6.1.96,1.38,2.36,2.08,4.22,2.08,1.08,0,2-.14,2.76-.43.76-.29,1.38-.73,1.88-1.33.5-.6.86-1.36,1.09-2.29.23-.93.34-2.03.34-3.32v-.9c0-1.94-.21-3.52-.62-4.73-.41-1.21-1.08-2.1-2.01-2.68-.93-.57-2.1-.86-3.53-.86Z" fill="#00e7ff"></path><path d="M384.88,163.73c.43,0,.89.02,1.39.06s.92.11,1.26.19l-.51,4.24c-.37-.09-.77-.16-1.2-.21-.43-.06-.88-.08-1.37-.08-.8,0-1.58.16-2.35.49s-1.46.79-2.05,1.39c-.6.6-1.08,1.34-1.43,2.23-.36.89-.54,1.91-.54,3.08v12.12h-4.54v-23.08h3.6l.6,4.11h.21c.46-.83,1.03-1.59,1.71-2.29.69-.7,1.47-1.25,2.35-1.65.88-.4,1.84-.6,2.87-.6Z" fill="#00e7ff"></path><path d="M408.13,163.77c2.83,0,4.94.64,6.34,1.91,1.4,1.27,2.1,3.25,2.1,5.93v15.63h-3.25l-.9-3.21h-.17c-.66.83-1.33,1.51-2.03,2.05-.7.54-1.5.94-2.4,1.2-.9.26-1.99.38-3.28.38-1.37,0-2.6-.25-3.7-.75-1.1-.5-1.96-1.26-2.59-2.29s-.94-2.34-.94-3.94c0-2.31.9-4.09,2.7-5.33,1.8-1.24,4.52-1.92,8.18-2.03l3.9-.13v-1.2c0-1.77-.39-3-1.16-3.68-.77-.68-1.86-1.03-3.25-1.03-1.14,0-2.26.18-3.36.54-1.1.36-2.13.76-3.1,1.22l-1.37-3.3c1.06-.57,2.3-1.04,3.72-1.41,1.43-.37,2.95-.56,4.58-.56ZM408.94,176.27c-2.6.08-4.4.5-5.42,1.24-1.01.74-1.52,1.78-1.52,3.12,0,1.2.36,2.08,1.07,2.63.71.56,1.64.83,2.78.83,1.77,0,3.25-.49,4.43-1.48,1.18-.98,1.78-2.48,1.78-4.47v-2.01l-3.12.13Z" fill="#00e7ff"></path><path d="M457.36,163.73c2.62,0,4.59.66,5.91,1.99,1.31,1.33,1.97,3.49,1.97,6.49v15.03h-4.54v-14.43c0-1.8-.36-3.13-1.07-4-.71-.87-1.8-1.31-3.25-1.31-2.08,0-3.56.63-4.43,1.88-.87,1.26-1.31,3.08-1.31,5.48v12.37h-4.54v-14.43c0-1.2-.16-2.19-.47-2.98s-.79-1.37-1.41-1.76c-.63-.38-1.46-.58-2.48-.58-1.43,0-2.55.31-3.36.94-.81.63-1.4,1.54-1.75,2.74-.36,1.2-.54,2.67-.54,4.41v11.65h-4.54v-23.08h3.6l.64,3.08h.21c.49-.77,1.08-1.42,1.78-1.95.7-.53,1.48-.92,2.33-1.18s1.77-.39,2.74-.39c1.77,0,3.24.31,4.41.92,1.17.61,2.04,1.56,2.61,2.85h.21c.77-1.28,1.8-2.23,3.1-2.85,1.3-.61,2.69-.92,4.17-.92Z" fill="#00e7ff"></path><path d="M42.12,168.4h14.37v8.18h-14.37v14.37h-8.25v-14.37h-14.44v-8.18h14.44v-14.52h8.25v14.52Z" fill="#ee953a"></path><line x1="89.75" y1="217.34" x2="213.93" y2="217.34" fill="none" stroke="#fff" stroke-miterlimit="10" stroke-width="3"></line></svg>